<?xml version="1.0" encoding="utf-8"?>
<!-- Generator: Adobe Illustrator 24.1.0, SVG Export Plug-In . SVG Version: 6.00 Build 0)  -->
<svg version="1.1" id="Layer_1" xmlns="http://www.w3.org/2000/svg" xmlns:xlink="http://www.w3.org/1999/xlink" x="0px" y="0px"
	 viewBox="0 0 1920 744" style="enable-background:new 0 0 1920 744;" xml:space="preserve">
<style type="text/css">
	.st0{fill:#3F5C6C;}
	.st1{fill-rule:evenodd;clip-rule:evenodd;fill:#3F5C6C;}
	.st2{opacity:0.84;clip-path:url(#SVGID_3_);fill:#3F5C6C;enable-background:new    ;}
	.st3{opacity:0.27;clip-path:url(#SVGID_5_);fill:#3F5C6C;enable-background:new    ;}
	.st4{opacity:0.25;clip-path:url(#SVGID_7_);fill:#3F5C6C;enable-background:new    ;}
</style>
<g>
	<path class="st0" d="M1756,153.3c-33.1-33.7-78.9-54.5-129.5-54.5s-96.4,20.8-129.5,54.5c-33.3,33.9-53.9,80.9-53.9,132.9
		c0,52.1,20.6,99,53.9,132.9c33.1,33.7,78.9,54.5,129.5,54.5s96.4-20.8,129.5-54.5c33.3-33.9,53.9-80.9,53.9-132.9
		S1789.3,187.2,1756,153.3 M1626.5,3.7c76.9,0,146.6,31.8,197,83.1c50.3,51.1,81.4,121.6,81.4,199.4c0,77.7-31.1,148.2-81.4,199.4
		c-50.5,51.3-120.1,83.1-197,83.1s-146.6-31.8-197-83.1c-50.3-51.1-81.4-121.7-81.4-199.4s31.1-148.2,81.4-199.4
		C1479.9,35.5,1549.6,3.7,1626.5,3.7z M877.1,521.2c0,26.2-21.3,47.5-47.5,47.5s-47.5-21.3-47.5-47.5V51.8
		c0-26.2,21.3-47.5,47.5-47.5c15.7,0,29.6,7.6,38.2,19.3l326.5,369.9l-4.5-341.1c-0.3-26.1,20.6-47.6,46.8-47.9
		c26.1-0.3,47.6,20.6,47.9,46.8l6.1,468.8c0.1,13.3-5.3,26.5-16,36c-19.6,17.3-49.5,15.5-66.8-4.1L877.1,177.2V521.2z M706.8,521.2
		c0,26.2-21.3,47.5-47.5,47.5s-47.5-21.3-47.5-47.5V51.8c0-26.2,21.3-47.5,47.5-47.5s47.5,21.3,47.5,47.5V521.2z"/>
	<path class="st1" d="M316.7,460.6c29.7,0,53.8,24.1,53.8,53.9c0,29.7-24.1,53.8-53.8,53.8c-29.7,0-53.8-24.1-53.8-53.8
		C262.9,484.7,287,460.6,316.7,460.6"/>
	<path class="st1" d="M1823.4,739.3h16.2v-58.7l45.3,58.7h16.1v-83.7h-16.1v59.1l-45.1-59.1h-16.3L1823.4,739.3L1823.4,739.3z
		 M1699.6,698.1c0-29.4,7.9-30.5,24.2-30.5c16.7,0,24,1.5,24,30.5c0,24.7-5.8,29.3-24,29.3C1704.8,727.3,1699.6,723.3,1699.6,698.1z
		 M1683.6,698.1c0,38.1,15.3,41.7,40.3,41.7c24.9,0,40.1-4.8,40.1-41.7c0-39.2-16.1-43-40.1-43
		C1700.6,655.1,1683.6,658.9,1683.6,698.1z M1608,739.3h16.1v-83.7H1608V739.3z M1477.3,668.1h28.2v71.2h16.1v-71.2h29v-12.5h-73.3
		L1477.3,668.1L1477.3,668.1z M1344.1,702.8c0,38.1,19.7,37.2,38.5,37.2c16.8,0,37.8-0.2,37.8-37.2v-47.1h-16.2v47.1
		c0,22.1-8.4,24.7-21.6,24.7c-15.1,0-22.4-1.8-22.4-24.7v-47.1h-16.1L1344.1,702.8L1344.1,702.8z M1231.2,723.7
		c0,12.9,9.9,15.6,20.3,15.6h41.9v-12.5h-37.5c-4,0-8.6,0.1-8.6-5.9v-65.3h-16.1L1231.2,723.7L1231.2,723.7z M1107.5,698.1
		c0-29.4,7.9-30.5,24.2-30.5c16.7,0,24,1.5,24,30.5c0,24.7-5.8,29.3-24,29.3C1112.7,727.3,1107.5,723.3,1107.5,698.1z M1091.4,698.1
		c0,38.1,15.3,41.7,40.3,41.7c24.9,0,40.1-4.8,40.1-41.7c0-39.2-16.1-43-40.1-43C1108.4,655.1,1091.4,658.9,1091.4,698.1z
		 M965.1,683.5c0,8.1,2,21.2,25.6,21.2h17c8,0,10,3.6,10,9.1v5.7c0,7.8-8.6,8.3-14.4,8.3c-12.9,0-29.6-0.8-35.1-1.3V737
		c9,1.9,24,3.2,37.6,3.2c13.7,0,28-3.2,28-21.1v-6.4c0-9.3-3.8-21.3-23.1-21.3h-17.4c-8,0-12.1-1.2-12.1-9.2v-5.4
		c0-9.1,5.8-9.7,14.8-9.5c3.2,0,25.3,0.6,34.2,1.1v-10.5c-7-1.4-25.6-3.3-37.6-3.1c-15.5,0.1-27.4,4.6-27.4,21.1L965.1,683.5
		L965.1,683.5z M801.5,668.1h28.2v71.2h16.1v-71.2h29v-12.5h-73.3V668.1z M667.1,739.3h16.2v-58.7l45.3,58.7h16.1v-83.7h-16.1v59.1
		l-45.1-59.1h-16.3v83.7H667.1z M543.4,723.7c0,14.5,12.7,16.3,21.7,15.9c0,0,37.9-1.4,42.9-1.9V727h-40c-4,0-8.5,0.1-8.6-5.9v-16.6
		l42.6-1.1v-10.8l-42.6-1.1v-16.6c0-3.1,0-6.4,7.2-6.4H608v-10.8c-5.7-0.6-44.3-1.8-44.3-1.8c-9.5-0.2-20.4,3.1-20.4,16.5v51.3
		H543.4z M383.6,739.3h15.9l5.8-60.4l20.6,60.4h17.6l19.9-60.4l6.5,60.4h15.9l-8.9-83.7h-22.2l-20.2,61.7l-20.6-61.7h-22.2
		L383.6,739.3z M250.7,655.7l31.4,56.4v27.3h16.1V712l33.9-56.4h-17.5l-24.3,41.5l-22.1-41.5h-17.5V655.7z M158,707l13.8-33.2
		L185,707H158z M127.6,739.3h17.8l8-20.2h35.8l7.8,20.2h17.6l-33.9-83.7h-17.8L127.6,739.3z M31.2,695.2v-27.4h25.9
		c4.9,0,11.3,1.4,11.5,13.2c0,11.9-5,14.2-11.5,14.2H31.2z M15.1,739.3h16.1V705c0.7,0.2,21.3,2.1,26.9,2.2
		c11.1,0.3,26.7-1.4,26.7-26.3c0-21.8-14.6-25.2-26.7-25.2h-43V739.3z"/>
	<g>
		<g>
			<path id="SVGID_1_" class="st0" d="M522.4,528.4c0,22.2-18,40.3-40.3,40.3c-22.2,0-40.3-18-40.3-40.3V152.1L86.7,554.4
				c-14.7,16.6-40,18.1-56.6,3.5c-16.6-14.7-18.1-40-3.5-56.6L449.7,21.9C457,12,468.8,5.6,482.1,5.6c22.2,0,40.3,18,40.3,40.3
				V528.4z"/>
		</g>
		<g>
			<defs>
				<path id="SVGID_2_" d="M522.4,528.4c0,22.2-18,40.3-40.3,40.3c-22.2,0-40.3-18-40.3-40.3V152.1L86.7,554.4
					c-14.7,16.6-40,18.1-56.6,3.5c-16.6-14.7-18.1-40-3.5-56.6L449.7,21.9C457,12,468.8,5.6,482.1,5.6c22.2,0,40.3,18,40.3,40.3
					V528.4z"/>
			</defs>
			<clipPath id="SVGID_3_">
				<use xlink:href="#SVGID_2_"  style="overflow:visible;"/>
			</clipPath>
			<path class="st2" d="M528,33.2C524.9,13.8,508-1,487.8-1c-22.5,0-34.1,18.4-48.6,34.4L26.7,500.9L528,33.2z"/>
		</g>
		<g>
			<defs>
				<path id="SVGID_4_" d="M522.4,528.4c0,22.2-18,40.3-40.3,40.3c-22.2,0-40.3-18-40.3-40.3V152.1L86.7,554.4
					c-14.7,16.6-40,18.1-56.6,3.5c-16.6-14.7-18.1-40-3.5-56.6L449.7,21.9C457,12,468.8,5.6,482.1,5.6c22.2,0,40.3,18,40.3,40.3
					V528.4z"/>
			</defs>
			<clipPath id="SVGID_5_">
				<use xlink:href="#SVGID_4_"  style="overflow:visible;"/>
			</clipPath>
			<path class="st3" d="M528,33.2C524.9,13.8,508-1,487.8-1c-22.5,0-34.1,18.4-48.6,34.4L240.8,258.2L528,33.2z"/>
		</g>
		<g>
			<defs>
				<path id="SVGID_6_" d="M522.4,528.4c0,22.2-18,40.3-40.3,40.3c-22.2,0-40.3-18-40.3-40.3V152.1L86.7,554.4
					c-14.7,16.6-40,18.1-56.6,3.5c-16.6-14.7-18.1-40-3.5-56.6L449.7,21.9C457,12,468.8,5.6,482.1,5.6c22.2,0,40.3,18,40.3,40.3
					V528.4z"/>
			</defs>
			<clipPath id="SVGID_7_">
				<use xlink:href="#SVGID_6_"  style="overflow:visible;"/>
			</clipPath>
			<path class="st4" d="M528,33.2C524.9,13.8,508-1,487.8-1C465.2-1,447,17.3,447,39.8l81.5,488.7L528,33.2z"/>
		</g>
	</g>
</g>
</svg>
